<?xml version="1.0" encoding="UTF-8"?>
<svg id="Layer_1" xmlns="http://www.w3.org/2000/svg" version="1.1" viewBox="0 0 717.79 753.57">
  <!-- Generator: Adobe Illustrator 30.5.1, SVG Export Plug-In . SVG Version: 2.1.4 Build 3)  -->
  <defs>
    <style>
      .st0 {
        fill: #005cff;
      }

      .st1 {
        fill: #041933;
      }
    </style>
  </defs>
  <g>
    <circle class="st0" cx="537.74" cy="60.02" r="60.02"/>
    <circle class="st0" cx="537.74" cy="219.46" r="60.02"/>
    <circle class="st0" cx="219.45" cy="219.47" r="60.02"/>
    <circle class="st0" cx="537.74" cy="378.9" r="60.02"/>
    <path class="st0" d="M318.87,125.23v94.22c0,54.92-44.52,99.44-99.44,99.44h-39.38c-33.15,0-60.02,26.87-60.02,60.02h0c0,33.15,26.87,60.02,60.02,60.02h43.4c118.99,0,215.45-96.46,215.45-215.45v-98.24c0-33.15-26.87-60.02-60.02-60.02h0c-33.15,0-60.02,26.87-60.02,60.02Z"/>
  </g>
  <g>
    <g>
      <path class="st1" d="M3.19,714.83c1.62-.35,4.15-.61,6.69-.61,3.68,0,6.03.62,7.79,2.06,1.47,1.11,2.37,2.8,2.37,5.02,0,2.74-1.83,5.15-4.8,6.21v.11c2.7.65,5.86,2.87,5.86,7.12,0,2.42-.96,4.29-2.43,5.65-1.95,1.83-5.15,2.66-9.79,2.66-2.54,0-4.46-.18-5.69-.32v-27.91ZM6.85,726.45h3.36c3.83,0,6.1-2.04,6.1-4.79,0-3.29-2.49-4.62-6.2-4.62-1.7,0-2.67.12-3.26.26v9.15ZM6.85,740.01c.75.15,1.76.19,3.09.19,3.8,0,7.3-1.39,7.3-5.52,0-3.86-3.34-5.47-7.34-5.48h-3.05v10.81Z"/>
      <path class="st1" d="M26.76,728.79c0-2.4-.06-4.45-.17-6.34h3.24l.14,3.99h.13c.95-2.73,3.19-4.46,5.67-4.46.4,0,.69.02,1.03.1v3.48c-.38-.08-.75-.11-1.26-.11-2.61,0-4.45,1.97-4.95,4.74-.1.52-.15,1.13-.15,1.73v10.87h-3.68v-14.01Z"/>
      <path class="st1" d="M45.67,716.69c0,1.26-.88,2.3-2.35,2.3-1.34,0-2.24-1.04-2.23-2.3,0-1.27.95-2.3,2.3-2.3s2.28,1.01,2.29,2.3ZM41.54,742.8v-20.35h3.68v20.35h-3.68Z"/>
      <path class="st1" d="M69.79,712.92v24.63c0,1.81.07,3.85.17,5.25h-3.29l-.19-3.52h-.1c-1.13,2.27-3.58,3.98-6.9,3.98-4.93,0-8.74-4.17-8.74-10.34-.03-6.8,4.19-10.94,9.15-10.94,3.12,0,5.23,1.46,6.14,3.09h.08v-12.15h3.68ZM66.11,730.73c0-.48-.04-1.1-.16-1.58-.58-2.33-2.57-4.26-5.36-4.26-3.83,0-6.12,3.36-6.12,7.83,0,4.13,2.06,7.57,6.05,7.57,2.48,0,4.73-1.67,5.41-4.44.13-.49.18-1.01.18-1.59v-3.53Z"/>
      <path class="st1" d="M94.36,722.45c-.1,1.44-.17,3.09-.17,5.57v11.82c0,4.71-.96,7.53-2.91,9.32-2,1.83-4.85,2.44-7.41,2.44s-5.14-.58-6.79-1.68l.93-2.85c1.36.85,3.45,1.63,5.99,1.63,3.78,0,6.55-1.98,6.55-7.13v-2.27h-.08c-1.11,1.91-3.33,3.43-6.47,3.43-5.07,0-8.68-4.31-8.68-9.95,0-6.9,4.49-10.79,9.19-10.79,3.53,0,5.44,1.82,6.35,3.51h.08l.15-3.05h3.27ZM90.51,730.45c0-.61-.05-1.16-.21-1.66-.68-2.16-2.47-3.94-5.2-3.94-3.53,0-6.06,2.99-6.06,7.72,0,3.98,2.06,7.33,6.03,7.33,2.3,0,4.36-1.45,5.15-3.82.2-.6.29-1.32.29-1.97v-3.67Z"/>
      <path class="st1" d="M105.04,716.69c0,1.26-.88,2.3-2.35,2.3-1.34,0-2.24-1.04-2.23-2.3,0-1.27.95-2.3,2.3-2.3s2.28,1.01,2.29,2.3ZM100.91,742.8v-20.35h3.68v20.35h-3.68Z"/>
      <path class="st1" d="M111.59,727.94c0-2.12-.07-3.81-.17-5.5h3.27l.2,3.35h.1c1-1.91,3.37-3.81,6.73-3.81,2.8,0,7.17,1.68,7.17,8.67v12.14h-3.68v-11.73c0-3.29-1.24-6.05-4.7-6.05-2.43,0-4.32,1.73-4.99,3.8-.15.45-.25,1.11-.25,1.72v12.26h-3.68v-14.86Z"/>
      <path class="st1" d="M153.35,722.45c-.1,1.44-.17,3.09-.17,5.57v11.82c0,4.71-.96,7.53-2.91,9.32-2,1.83-4.85,2.44-7.41,2.44s-5.14-.58-6.79-1.68l.93-2.85c1.36.85,3.45,1.63,5.99,1.63,3.78,0,6.55-1.98,6.55-7.13v-2.27h-.08c-1.11,1.91-3.33,3.43-6.47,3.43-5.07,0-8.68-4.31-8.68-9.95,0-6.9,4.49-10.79,9.19-10.79,3.53,0,5.44,1.82,6.35,3.51h.08l.15-3.05h3.27ZM149.5,730.45c0-.61-.05-1.16-.21-1.66-.68-2.16-2.47-3.94-5.2-3.94-3.53,0-6.06,2.99-6.06,7.72,0,3.98,2.06,7.33,6.03,7.33,2.3,0,4.36-1.45,5.15-3.82.2-.6.29-1.32.29-1.97v-3.67Z"/>
      <path class="st1" d="M173.71,717.53h-8.64v-3.09h21v3.09h-8.68v25.27h-3.68v-25.27Z"/>
      <path class="st1" d="M189.02,733.29c.07,5,3.25,7.07,6.96,7.07,2.65,0,4.27-.48,5.64-1.04l.65,2.63c-1.29.59-3.56,1.3-6.79,1.3-6.25,0-10.01-4.17-10.01-10.27s3.63-10.98,9.58-10.98c6.64,0,8.38,5.83,8.38,9.57,0,.78-.04,1.33-.13,1.74h-14.27ZM199.86,730.63c.04-2.33-.96-5.99-5.11-5.99-3.78,0-5.39,3.42-5.68,5.99h10.79Z"/>
      <path class="st1" d="M223.39,742.06c-.97.48-3.1,1.18-5.84,1.18-6.14,0-10.16-4.18-10.16-10.4s4.28-10.85,10.93-10.85c2.18,0,4.15.55,5.14,1.08l-.82,2.84c-.91-.48-2.29-.98-4.33-.98-4.64,0-7.19,3.48-7.18,7.71,0,4.72,3.03,7.62,7.09,7.62,2.07,0,3.49-.53,4.53-.98l.63,2.78Z"/>
      <path class="st1" d="M228.57,712.92h3.68v12.71h.08c.61-1.04,1.53-1.97,2.66-2.61,1.08-.64,2.39-1.03,3.79-1.03,2.74,0,7.09,1.67,7.09,8.69v12.12h-3.68v-11.72c0-3.29-1.24-6.04-4.7-6.04-2.42,0-4.29,1.69-4.99,3.69-.19.52-.25,1.08-.25,1.76v12.3h-3.68v-29.88Z"/>
      <path class="st1" d="M252.76,727.94c0-2.12-.07-3.81-.17-5.5h3.27l.2,3.35h.1c1-1.91,3.37-3.81,6.73-3.81,2.8,0,7.17,1.68,7.17,8.67v12.14h-3.68v-11.73c0-3.29-1.24-6.05-4.7-6.05-2.43,0-4.32,1.73-4.99,3.8-.15.45-.25,1.11-.25,1.72v12.26h-3.68v-14.86Z"/>
      <path class="st1" d="M295.38,732.43c0,7.54-5.23,10.83-10.12,10.83-5.52,0-9.78-4.02-9.78-10.48,0-6.81,4.48-10.79,10.11-10.79s9.8,4.24,9.8,10.44ZM279.24,732.66c0,4.46,2.56,7.83,6.17,7.83s6.2-3.32,6.2-7.94c0-3.44-1.74-7.8-6.13-7.8s-6.24,4.05-6.24,7.91Z"/>
      <path class="st1" d="M300.9,712.92h3.68v29.88h-3.68v-29.88Z"/>
      <path class="st1" d="M330.09,732.43c0,7.54-5.23,10.83-10.12,10.83-5.52,0-9.78-4.02-9.78-10.48,0-6.81,4.48-10.79,10.11-10.79s9.8,4.24,9.8,10.44ZM313.95,732.66c0,4.46,2.56,7.83,6.17,7.83s6.2-3.32,6.2-7.94c0-3.44-1.74-7.8-6.13-7.8s-6.24,4.05-6.24,7.91Z"/>
      <path class="st1" d="M353.22,722.45c-.1,1.44-.17,3.09-.17,5.57v11.82c0,4.71-.96,7.53-2.91,9.32-2,1.83-4.85,2.44-7.41,2.44s-5.14-.58-6.79-1.68l.93-2.85c1.36.85,3.45,1.63,5.99,1.63,3.78,0,6.55-1.98,6.55-7.13v-2.27h-.08c-1.11,1.91-3.33,3.43-6.47,3.43-5.07,0-8.68-4.31-8.68-9.95,0-6.9,4.49-10.79,9.19-10.79,3.53,0,5.44,1.82,6.35,3.51h.08l.15-3.05h3.27ZM349.36,730.45c0-.61-.05-1.16-.21-1.66-.68-2.16-2.47-3.94-5.2-3.94-3.53,0-6.06,2.99-6.06,7.72,0,3.98,2.06,7.33,6.03,7.33,2.3,0,4.36-1.45,5.15-3.82.2-.6.29-1.32.29-1.97v-3.67Z"/>
      <path class="st1" d="M361.35,722.45l4.45,12.03c.48,1.35.98,2.94,1.31,4.15h.1c.36-1.2.81-2.76,1.3-4.23l4.03-11.95h3.93l-5.57,14.5c-2.64,7-4.45,10.56-6.97,12.77-1.83,1.58-3.63,2.21-4.54,2.38l-.92-3.09c.93-.29,2.13-.87,3.24-1.81,1-.81,2.24-2.24,3.1-4.12.19-.39.29-.66.29-.89,0-.21-.06-.5-.26-.95l-7.51-18.77h4.03Z"/>
      <path class="st1" d="M390.8,742.8v-17.55h-2.84v-2.8h2.84v-.98c0-2.87.66-5.47,2.37-7.13,1.39-1.34,3.25-1.88,4.95-1.88,1.34,0,2.45.28,3.16.6l-.49,2.84c-.56-.25-1.29-.46-2.38-.46-3.13,0-3.95,2.77-3.95,5.91v1.1h4.92v2.8h-4.9v17.55h-3.68Z"/>
      <path class="st1" d="M421.44,732.43c0,7.54-5.23,10.83-10.12,10.83-5.52,0-9.78-4.02-9.78-10.48,0-6.81,4.48-10.79,10.11-10.79s9.8,4.24,9.8,10.44ZM405.3,732.66c0,4.46,2.56,7.83,6.17,7.83s6.2-3.32,6.2-7.94c0-3.44-1.74-7.8-6.13-7.8s-6.24,4.05-6.24,7.91Z"/>
      <path class="st1" d="M426.95,728.79c0-2.4-.06-4.45-.17-6.34h3.24l.14,3.99h.13c.95-2.73,3.19-4.46,5.67-4.46.4,0,.69.02,1.03.1v3.48c-.38-.08-.75-.11-1.26-.11-2.61,0-4.45,1.97-4.95,4.74-.1.52-.15,1.13-.15,1.73v10.87h-3.68v-14.01Z"/>
      <path class="st1" d="M450.96,738.34c1.64,1.02,4.03,1.84,6.54,1.84,3.75,0,5.95-1.96,5.95-4.83,0-2.63-1.54-4.18-5.36-5.61-4.63-1.64-7.5-4.08-7.5-8.05,0-4.42,3.67-7.69,9.19-7.69,2.88,0,5.02.67,6.26,1.37l-1.02,3c-.9-.54-2.8-1.35-5.36-1.35-3.9,0-5.37,2.31-5.37,4.24,0,2.63,1.73,3.93,5.64,5.45,4.81,1.89,7.23,4.2,7.23,8.35s-3.21,8.18-9.93,8.18c-2.74,0-5.73-.83-7.25-1.85l.96-3.06Z"/>
      <path class="st1" d="M475.23,733.29c.07,5,3.25,7.07,6.96,7.07,2.65,0,4.27-.48,5.64-1.04l.65,2.63c-1.29.59-3.56,1.3-6.79,1.3-6.25,0-10.01-4.17-10.01-10.27s3.63-10.98,9.58-10.98c6.64,0,8.38,5.83,8.38,9.57,0,.78-.04,1.33-.13,1.74h-14.27ZM486.06,730.63c.04-2.33-.96-5.99-5.11-5.99-3.78,0-5.39,3.42-5.68,5.99h10.79Z"/>
      <path class="st1" d="M495.08,727.94c0-2.12-.07-3.81-.17-5.5h3.27l.2,3.35h.1c1-1.91,3.37-3.81,6.73-3.81,2.8,0,7.17,1.68,7.17,8.67v12.14h-3.68v-11.73c0-3.29-1.24-6.05-4.7-6.05-2.43,0-4.32,1.73-4.99,3.8-.15.45-.25,1.11-.25,1.72v12.26h-3.68v-14.86Z"/>
      <path class="st1" d="M523.41,716.69c0,1.26-.88,2.3-2.35,2.3-1.34,0-2.24-1.04-2.23-2.3,0-1.27.95-2.3,2.3-2.3s2.28,1.01,2.29,2.3ZM519.28,742.8v-20.35h3.68v20.35h-3.68Z"/>
      <path class="st1" d="M548.39,732.43c0,7.54-5.23,10.83-10.12,10.83-5.52,0-9.78-4.02-9.78-10.48,0-6.81,4.48-10.79,10.11-10.79s9.8,4.24,9.8,10.44ZM532.25,732.66c0,4.46,2.56,7.83,6.17,7.83s6.2-3.32,6.2-7.94c0-3.44-1.74-7.8-6.13-7.8s-6.24,4.05-6.24,7.91Z"/>
      <path class="st1" d="M553.9,728.79c0-2.4-.06-4.45-.17-6.34h3.24l.14,3.99h.13c.95-2.73,3.19-4.46,5.67-4.46.4,0,.69.02,1.03.1v3.48c-.38-.08-.75-.11-1.26-.11-2.61,0-4.45,1.97-4.95,4.74-.1.52-.15,1.13-.15,1.73v10.87h-3.68v-14.01Z"/>
      <path class="st1" d="M598.2,741.89c-1.32.67-4.04,1.35-7.5,1.35-7.99,0-13.98-5.06-13.98-14.37s6-14.88,14.81-14.88c3.5,0,5.77.74,6.73,1.25l-.9,2.98c-1.38-.66-3.35-1.17-5.71-1.17-6.66,0-11.06,4.25-11.06,11.7,0,6.94,4,11.37,10.87,11.37,2.25,0,4.52-.45,6.01-1.16l.74,2.92Z"/>
      <path class="st1" d="M607.52,716.69c0,1.26-.88,2.3-2.35,2.3-1.34,0-2.24-1.04-2.23-2.3,0-1.27.95-2.3,2.3-2.3s2.28,1.01,2.29,2.3ZM603.39,742.8v-20.35h3.68v20.35h-3.68Z"/>
      <path class="st1" d="M618.52,716.59v5.86h5.32v2.8h-5.32v10.97c0,2.54.73,3.97,2.8,3.97.96,0,1.66-.12,2.15-.27l.17,2.81c-.72.28-1.87.51-3.31.51-1.7,0-3.11-.56-4-1.57-1.02-1.12-1.44-2.92-1.44-5.31v-11.11h-3.15v-2.8h3.15v-4.9l3.63-.96Z"/>
      <path class="st1" d="M632.98,716.69c0,1.26-.88,2.3-2.35,2.3-1.34,0-2.24-1.04-2.23-2.3,0-1.27.95-2.3,2.3-2.3s2.28,1.01,2.29,2.3ZM628.84,742.8v-20.35h3.68v20.35h-3.68Z"/>
      <path class="st1" d="M637.21,740.64l9.2-11.96c.91-1.13,1.73-2.1,2.68-3.19v-.09h-11.06v-2.96h15.55l-.02,2.31-9.1,11.83c-.87,1.1-1.71,2.15-2.62,3.16v.09h11.89v2.96h-16.52v-2.16Z"/>
      <path class="st1" d="M660.16,733.29c.07,5,3.25,7.07,6.96,7.07,2.65,0,4.27-.48,5.64-1.04l.65,2.63c-1.29.59-3.56,1.3-6.79,1.3-6.25,0-10.01-4.17-10.01-10.27s3.63-10.98,9.58-10.98c6.64,0,8.38,5.83,8.38,9.57,0,.78-.04,1.33-.13,1.74h-14.27ZM670.99,730.63c.04-2.33-.96-5.99-5.11-5.99-3.78,0-5.39,3.42-5.68,5.99h10.79Z"/>
      <path class="st1" d="M680.01,727.94c0-2.12-.07-3.81-.17-5.5h3.27l.2,3.35h.1c1-1.91,3.37-3.81,6.73-3.81,2.8,0,7.17,1.68,7.17,8.67v12.14h-3.68v-11.73c0-3.29-1.24-6.05-4.7-6.05-2.43,0-4.32,1.73-4.99,3.8-.15.45-.25,1.11-.25,1.72v12.26h-3.68v-14.86Z"/>
      <path class="st1" d="M703.68,739.03c1.12.7,3.06,1.45,4.91,1.45,2.7,0,3.95-1.33,3.95-3.03s-1.08-2.71-3.78-3.73c-3.68-1.33-5.42-3.33-5.41-5.77,0-3.28,2.66-5.97,7.04-5.97,2.07,0,3.85.56,4.99,1.25l-.92,2.69c-.78-.49-2.27-1.2-4.18-1.2-2.18,0-3.37,1.26-3.37,2.79,0,1.68,1.2,2.44,3.86,3.47,3.51,1.31,5.33,3.08,5.34,6.12,0,3.61-2.8,6.13-7.61,6.13-2.23,0-4.29-.58-5.72-1.42l.9-2.79Z"/>
    </g>
    <g>
      <g>
        <path class="st1" d="M60.62,675.55c-11.17,0-21.37-2.42-30.59-7.26-9.22-4.84-16.53-11.5-21.93-19.97C2.7,639.85,0,630.02,0,618.85c0-8.75,2-16.99,6.01-24.72,4-7.73,9.54-14.2,16.62-19.41-6.15-4.84-11.08-10.75-14.81-17.74-3.73-6.98-5.59-14.2-5.59-21.65,0-10.99,2.65-20.62,7.96-28.91,5.31-8.28,12.47-14.76,21.51-19.41,9.03-4.65,18.95-6.98,29.75-6.98h63.27c13.04,0,23.6,10.57,23.6,23.6h0c0,13.04-10.57,23.6-23.6,23.6h-49.86c-2.98,0-5.68.52-8.1,1.54-2.42,1.03-4.33,2.51-5.73,4.47-1.4,1.95-2.1,4.43-2.1,7.4,0,2.79.7,5.17,2.1,7.12,1.4,1.95,3.3,3.45,5.73,4.47,2.42,1.03,5.12,1.54,8.1,1.54h40.23c12.96,0,23.46,10.51,23.46,23.46h0c0,12.96-10.51,23.46-23.46,23.46h-39.95c-3.17,0-5.96.56-8.38,1.68-2.42,1.12-4.33,2.7-5.73,4.75-1.4,2.05-2.1,4.57-2.1,7.54,0,2.79.7,5.22,2.1,7.26,1.4,2.05,3.3,3.59,5.73,4.61,2.42,1.03,5.21,1.54,8.38,1.54h49.72c12.96,0,23.46,10.51,23.46,23.46v.56c0,12.96-10.51,23.46-23.46,23.46H60.62Z"/>
        <path class="st1" d="M210.69,675.55c-14.71,0-26.68-4.23-35.9-12.71-9.22-8.47-13.83-19.51-13.83-33.1,0-5.96,1.3-11.87,3.91-17.74,2.61-5.87,7.08-11.5,13.41-16.9l53.46-48.1c8.06-7.25,2.93-20.62-7.91-20.62h-35.63c-12.73,0-23.05-10.31-23.05-23.04v-.28c0-12.73,10.32-23.05,23.05-23.05h81.15c9.87,0,18.53,1.95,25.98,5.87,7.45,3.91,13.27,9.27,17.46,16.06,4.19,6.8,6.29,14.76,6.29,23.88,0,5.96-1.3,11.87-3.91,17.74-2.61,5.87-6.8,11.31-12.57,16.34l-55.33,48.84c-8.17,7.21-3.07,20.69,7.82,20.7l42.35.02c12.73,0,23.05,10.32,23.05,23.05h0c0,12.73-10.32,23.05-23.05,23.05h-86.73Z"/>
      </g>
      <path class="st1" d="M489.87,629.36h0c-7.02-.03-12.7-5.72-12.73-12.74-.02-5.83,2.48-11.36,6.79-15.28,6.02-5.47,11.05-11.88,15.1-19.22,5.49-9.96,8.24-20.62,8.24-31.98,0-13.78-3.45-25.93-10.34-36.45-6.89-10.52-16.11-18.76-27.65-24.72-11.55-5.96-24.4-8.94-38.55-8.94h-66.16c-14.68,0-26.58,11.9-26.58,26.58v138.79c0,16.66,13.51,30.17,30.17,30.17h0c16.66,0,30.17-13.51,30.17-30.17v-17.96c0-3.66,2.96-6.62,6.62-6.62h0c8.38,0,15.99,4.91,19.44,12.55h0c11.6,25.69,37.18,42.2,65.37,42.2h0c12.76,0,23.1-10.34,23.1-23.1s-10.28-23.04-22.99-23.1ZM439.03,580.46c-15.84,0-28.69-12.84-28.69-28.69s12.84-28.69,28.69-28.69,28.69,12.84,28.69,28.69-12.84,28.69-28.69,28.69Z"/>
      <path class="st1" d="M716.03,637.27l-47.44-129.83c-3.48-9.14-9.19-16-17.14-20.57-7.95-4.57-16.96-6.86-27.01-6.86s-19.06,2.33-27.01,6.99c-7.95,4.66-13.67,11.57-17.14,20.71l-47.41,129.54c-6.81,18.6,6.96,38.3,26.76,38.3h0c12.32,0,23.24-7.92,27.08-19.62l.22-.67c2.57-7.85,9.9-13.16,18.17-13.16h37.62c8.37,0,15.76,5.44,18.25,13.43h0c3.71,11.91,14.74,20.03,27.21,20.03h1.07c19.8,0,33.56-19.69,26.77-38.28ZM624.45,602.45c-15.84,0-28.69-12.84-28.69-28.69s12.84-28.69,28.69-28.69,28.69,12.84,28.69,28.69-12.84,28.69-28.69,28.69Z"/>
    </g>
  </g>
</svg>