<svg xmlns="http://www.w3.org/2000/svg" viewBox="0 0 512 512">
  <rect width="512" height="512" rx="112" fill="#005cff"/>
  <g fill="#ffffff" transform="translate(70 96) scale(0.62)">
    <circle cx="537.74" cy="60.02" r="60.02"/>
    <circle cx="537.74" cy="219.46" r="60.02"/>
    <circle cx="219.45" cy="219.47" r="60.02"/>
    <circle cx="537.74" cy="378.9" r="60.02"/>
    <path d="M318.87,125.23v94.22c0,54.92-44.52,99.44-99.44,99.44h-39.38c-33.15,0-60.02,26.87-60.02,60.02h0c0,33.15,26.87,60.02,60.02,60.02h43.4c118.99,0,215.45-96.46,215.45-215.45v-98.24c0-33.15-26.87-60.02-60.02-60.02h0c-33.15,0-60.02,26.87-60.02,60.02Z"/>
  </g>
</svg>
